<?xml version="1.0" encoding="UTF-8" standalone="no"?>
<svg
   xmlns:dc="http://purl.org/dc/elements/1.1/"
   xmlns:cc="http://creativecommons.org/ns#"
   xmlns:rdf="http://www.w3.org/1999/02/22-rdf-syntax-ns#"
   xmlns:svg="http://www.w3.org/2000/svg"
   xmlns="http://www.w3.org/2000/svg"
   xmlns:sodipodi="http://sodipodi.sourceforge.net/DTD/sodipodi-0.dtd"
   xmlns:inkscape="http://www.inkscape.org/namespaces/inkscape"
   version="1.1"
   width="76"
   height="76"
   viewBox="0 0 76.00 76.00"
   enable-background="new 0 0 76.00 76.00"
   xml:space="preserve"
   id="svg2"
   inkscape:version="0.48.5 r10040"
   sodipodi:docname="appbar.rss.svg"><metadata
   id="metadata10"><rdf:RDF><cc:Work
       rdf:about=""><dc:format>image/svg+xml</dc:format><dc:type
         rdf:resource="http://purl.org/dc/dcmitype/StillImage" /></cc:Work></rdf:RDF></metadata><defs
   id="defs8" /><sodipodi:namedview
   pagecolor="#ffffff"
   bordercolor="#666666"
   borderopacity="1"
   objecttolerance="10"
   gridtolerance="10"
   guidetolerance="10"
   inkscape:pageopacity="0"
   inkscape:pageshadow="2"
   inkscape:window-width="708"
   inkscape:window-height="480"
   id="namedview6"
   showgrid="false"
   inkscape:zoom="3.1052632"
   inkscape:cx="38"
   inkscape:cy="38"
   inkscape:window-x="0"
   inkscape:window-y="0"
   inkscape:window-maximized="0"
   inkscape:current-layer="svg2" />
	<path
   d="m 13.525424,13.525424 c 27.033843,0 48.949152,21.915308 48.949152,48.949152 l -10.197782,0 c 0,-21.401857 -16.892997,-38.75137 -37.731553,-38.75137 l -1.019817,0.01378 0,-10.211566 z m 0,16.316426 c 18.022562,0 32.632725,14.610163 32.632725,32.632726 l -10.197654,0 c 0,-12.390448 -10.044495,-22.434942 -22.435071,-22.434942 l 0,-10.197784 z m 7.138461,18.355933 c 3.942339,0 7.138332,3.195993 7.138332,7.138332 0,3.942468 -3.195993,7.138461 -7.138332,7.138461 -3.942468,0 -7.138461,-3.195993 -7.138461,-7.138461 0,-3.942339 3.195993,-7.138332 7.138461,-7.138332 z"
   id="path4"
   style="fill:#fcfbe3;fill-opacity:1;stroke-width:0.2;stroke-linejoin:round"
   inkscape:connector-curvature="0" />
</svg>